<svg xmlns="http://www.w3.org/2000/svg" fill="none" viewBox="0 0 128 128">
    <defs>
        <linearGradient id="cupGrad" x1="0%" y1="0%" x2="100%" y2="100%">
            <stop offset="0%" style="stop-color:#cdd6f4"/>
            <stop offset="100%" style="stop-color:#bac2de"/>
        </linearGradient>
        <linearGradient id="coffeeGrad" x1="0%" y1="0%" x2="100%" y2="100%">
            <stop offset="0%" style="stop-color:#6c7086"/>
            <stop offset="100%" style="stop-color:#45475a"/>
        </linearGradient>
        <linearGradient id="steamGrad" x1="0%" y1="100%" x2="0%" y2="0%">
            <stop offset="0%" style="stop-color:#89b4fa;stop-opacity:0"/>
            <stop offset="50%" style="stop-color:#89b4fa;stop-opacity:0.6"/>
            <stop offset="100%" style="stop-color:#89b4fa;stop-opacity:0"/>
        </linearGradient>
    </defs>
    
    <!-- Saucer -->
    <ellipse cx="64" cy="96" rx="28" ry="8" fill="#313244"/>
    
    <!-- Cup main body -->
    <path d="M36 48 C36 44, 40 40, 44 40 L84 40 C88 40, 92 44, 92 48 L88 80 C88 84, 84 88, 80 88 L48 88 C44 88, 40 84, 40 80 Z" fill="url(#cupGrad)" stroke="#89b4fa" stroke-width="1"/>
    
    <!-- Coffee inside -->
    <path d="M40 48 C40 46, 42 44, 44 44 L84 44 C86 44, 88 46, 88 48 L84 76 C84 78, 82 80, 80 80 L48 80 C46 80, 44 78, 44 76 Z" fill="url(#coffeeGrad)"/>
    
    <!-- Cup handle -->
    <path d="M92 52 C100 52, 104 56, 104 64 C104 72, 100 76, 92 76" stroke="#89b4fa" stroke-width="3" fill="none"/>
    
    <!-- Steam -->
    <path d="M52 32 Q52 20, 48 16 Q52 12, 52 8" stroke="url(#steamGrad)" stroke-width="2" fill="none" stroke-linecap="round">
        <animate attributeName="opacity" values="0.3;0.8;0.3" dur="2s" repeatCount="indefinite"/>
    </path>
    <path d="M64 32 Q64 20, 60 16 Q64 12, 64 8" stroke="url(#steamGrad)" stroke-width="2" fill="none" stroke-linecap="round">
        <animate attributeName="opacity" values="0.8;0.3;0.8" dur="2s" repeatCount="indefinite" begin="0.7s"/>
    </path>
    <path d="M76 32 Q76 20, 72 16 Q76 12, 76 8" stroke="url(#steamGrad)" stroke-width="2" fill="none" stroke-linecap="round">
        <animate attributeName="opacity" values="0.5;0.9;0.5" dur="2s" repeatCount="indefinite" begin="1.3s"/>
    </path>
    
    <!-- Highlight on cup -->
    <ellipse cx="50" cy="56" rx="6" ry="12" fill="#89b4fa" opacity="0.3"/>
</svg>